<svg xmlns="http://www.w3.org/2000/svg" width="688" height="629.33333" version="1.0" viewBox="0 0 516 472"><path d="M38.8 1.6C20.3 6 5.9 20.5 1.5 39.2c-2.2 9.5-2.2 384.1 0 393.6C6 451.7 20.3 466 39.2 470.5c9.5 2.2 428.1 2.2 437.6 0 18.9-4.5 33.2-18.8 37.7-37.7 2.2-9.5 2.2-384.1 0-393.6C510 20.3 495.7 6 476.8 1.5c-9.1-2.1-429.2-2.1-438 .1zM128 87.5V96h-9.2c-5.1 0-11 .5-13 1-5.1 1.5-9.7 5.6-12.2 11-2 4.3-2.1 6.5-2.7 54.5-.5 47.7-.6 50.3-2.7 56.5-2.5 7.5-6.8 13.2-12 16-2.1 1-3.1 1.9-2.5 2 2.3 0 9.4 7.3 11.9 12.1 4.5 8.9 4.7 11.2 5.3 63.9.7 56.2.7 55.8 7.7 61.9 4.4 3.9 9 5.1 20.2 5.1h9.2v17h-15.3c-10.7 0-16.9-.5-20.4-1.5-6-1.8-13.5-8.1-16.4-13.7-4.4-8.7-4.9-14.5-4.9-64 0-30.7-.4-48.5-1.1-52-2.3-10.8-7.7-17.6-15.5-19.8l-4.4-1.3v-16.4l4.6-1.3c8.3-2.4 13-8.1 15.3-18.8.7-3.5 1.1-20.9 1.1-50.5 0-46.7.5-54.6 4.1-62.7 5.5-12.4 13.6-15.8 37.2-15.9L128 79v8.5zm300.5-5c7 3.5 11.6 9 14.2 16.8 1.5 4.5 1.8 11.9 2.3 57.7.5 47 .8 53 2.4 57.2 2.2 6 8.2 11.4 14.1 12.9l4.5 1.1v16.4l-4.5 1.2c-5.7 1.5-11.6 7.3-14.1 13.8-1.6 4.4-1.8 9.9-2.4 57.9-.5 38.8-1 54.1-1.9 57-3.1 9.6-7.8 15.3-16.1 19.6-4.1 2.1-6.1 2.4-21.7 2.7l-17.3.4v-17l10.8-.4c12.2-.4 17.2-2.2 20.9-7.8 4.5-6.5 4.6-8.4 5.3-61 .7-52.1.8-53.8 5-62 2-3.9 10.2-12 12.2-12 .6 0-.9-1.3-3.4-2.9-4.7-3-8.3-8.1-11.5-16.1-1.5-4-1.8-10.4-2.3-54-.7-51.6-.9-53.5-5.3-60-3.7-5.6-8.7-7.4-20.9-7.8l-10.8-.4v-17l17.3.4c16.8.3 17.3.4 23.2 3.3zM318.1 134c1 .6 9 10.4 17.6 21.8l15.8 20.7v140l-2.4 5.3c-3.1 6.9-10.6 13.7-17.4 15.7-7.6 2.2-139.8 2.2-147.4 0-6.8-2-14.3-8.8-17.4-15.7l-2.4-5.3v-140l15.7-20.7c8.7-11.4 16.6-21.2 17.5-21.7 2.5-1.4 117.7-1.5 120.4-.1z"/><path d="m200.5 160.7-6.6 8.8 32 .3c17.7.1 46.5.1 64.2 0l32-.3-6.6-8.8-6.6-8.7H207.1l-6.6 8.7zM184 252.3v62.4l2.6 2.4 2.6 2.4h137.6l2.6-2.4 2.6-2.4V190H184v62.3zm42.9-41.5c2.1 2.1 2.9 4.1 3.5 8.5 1.7 14.9 13.3 25.7 27.6 25.7s25.9-10.8 27.6-25.7c.6-4.4 1.4-6.4 3.5-8.5 5.2-5.3 14.1-2.6 15.5 4.7.3 1.9.1 6.2-.5 9.6-3.9 22.4-23.5 38.9-46.1 38.9s-42.2-16.5-46.1-38.9c-.6-3.4-.8-7.7-.5-9.6 1.4-7.3 10.3-10 15.5-4.7z"/></svg>